<?xml version="1.0" encoding="UTF-8" standalone="no"?><!DOCTYPE svg PUBLIC "-//W3C//DTD SVG 1.1//EN" "http://www.w3.org/Graphics/SVG/1.1/DTD/svg11.dtd"><svg xmlns="http://www.w3.org/2000/svg" xmlns:xlink="http://www.w3.org/1999/xlink"><symbol viewBox="0 0 755.64 927.96" id="apple"><path d="M562.472 0c-46.674 1.874-103.17 31.098-136.683 70.342-30.002 34.683-56.314 90.266-49.182 143.547 52.054 4.036 105.21-26.49 137.616-65.676 32.4-39.243 54.274-93.823 48.25-148.212zm-17.76 223.653c-65.928.889-127.023 43.25-160.775 43.25-36.612 0-93.221-41.455-153.11-40.285-78.84 1.17-151.409 45.79-191.998 116.325-81.821 141.945-20.879 352.313 58.779 467.53 39.01 56.322 85.454 119.763 146.513 117.424 58.837-2.34 81.043-37.986 152.045-37.986 71.002 0 91.007 37.997 153.178 36.886 63.223-1.228 103.364-57.561 142.082-114.058 44.683-65.387 63.157-128.652 64.21-131.986-1.404-.585-123.302-47.307-124.588-187.732-1.053-117.439 95.91-173.82 100.296-176.569-54.567-79.833-139.476-90.78-169.771-92.066a147.657 147.657 0 0 0-16.86-.733z"/></symbol><symbol viewBox="-101.982 -101.457 300 300" id="burger-king"><path fill="#ffbb36" d="M121.172-57.676c.685-1.687-.71-3.343-.71-3.343s-10.958-18.642-49.729-22.778c-20.759-2.212-49.02 1.988-68.829 12.67C-33.987-51.788-39.361-19.93-39.361-19.93c-.202.78-.546 3.155.261 4.168.822 1.031 2.018 1.012 3.502.511 12.667-4.279 50.421-16.799 74.246-23.122 33.906-8.989 61.759-14.459 79.637-17.505 1.269-.215 2.408-.631 2.887-1.798"/><path fill="#0066b3" d="M159.888 92.469c-20.294 45.576-59.228 77.294-110.254 78.017-37.157.527-69.948-12.203-93.63-34.407l-14.323 6.128.024-22.176C-73.9 98.982-82.948 72.357-82.948 42.111c0-77.468 59.335-138.534 142.087-138.534 13.507 0 25.715 2.102 34.919 4.187-14.181-4.538-28.272-6.997-43.957-6.997-88.812 0-148.58 72.014-148.583 146.28 0 80.931 63.489 148.72 146.823 148.72 79.595 0 122.538-56.117 136.271-89.866l-24.724-13.432"/><path fill="#ec1d23" d="M139.287 76.457c11.679-1.325 19.759-6.019 24.194-10.373 4.042-3.971 4.985-9.439 4.991-13.501.163-5.968 0-24.801 0-24.801l-30.907 6.687-.012 7.22c.057 4.776 2.359 7.376 7.365 6.455 1.569-.257 3.984-1.027 3.984-1.027l.042 5.902c-.027-.169.457 3.291-7.332 4.831-10.193 1.6-14.825-4.672-14.946-15.755.201-11.878 6.917-18.728 15.064-20.604 9.166-2.102 14.354.082 17.403.547 10.237 1.533 13.14-13.815 3.828-17.415-6.884-2.773-15.815-3.274-24.329-1.574-11.368 2.267-33.724 11.782-33.786 42.699.061 24.567 18.173 32.573 34.441 30.709M38.819 102.788s9.483-3.253 10.303-3.541c7.622-2.63 10.399-7.162 10.365-15.006-.096-8.517-.11-25.125-.11-25.125l22.05 25.407c3.582 3.699 8.071 4.015 12.181 2.809 4.249-1.244 7.787-5.129 7.894-10.608.035-18.347-.009-63.125-.009-63.125s-5.698 1.209-10.428 2.55c-5.442 1.542-9.629 5.012-9.629 14.172 0 3.243-.012 21.853-.012 21.853S69.014 36.61 60.899 28.492c-4.339-4.334-11.518-1.747-11.518-1.747l-10.58 3.202.018 72.841M32.143 31.588s-6.641 1.948-12.045 3.899c-7.017 2.537-11.062 6.597-11.062 17.219 0 9.756-.017 60.533-.017 60.533s6.147-2.102 11.878-4.264c8.148-3.072 11.222-7.263 11.222-15.819 0-7.353.024-61.568.024-61.568M-.812 45.992c-6.095-2.769-11.327.319-13.549 3.732l-18.735 31.865-.033-25.689-22.086 9.149-.069 72.646 15.558-6.522s3.054-.866 4.897-3.762c1.694-2.668 1.631-7.143 1.631-7.143l.019-23.036 17.388 18.451c3.818 3.965 10.833 6.001 17.023 1.001 5.597-4.52 4.73-12.226 1.608-15.677L-13 85.062S.94 63.092 3.219 59.421c3.025-4.876 1.503-10.915-4.031-13.429"/><path fill="#ffbb36" d="M-9.462 131.383c-.822 1.894 1.053 3.773 1.053 3.773 8.039 10.087 43.732 22.877 82.474 13.513 59.165-14.309 71.666-56.166 73.082-62.076.291-1.205.521-3.143-.597-4.306-.938-.971-2.271-.981-4.121-.553-41.093 9.66-109.474 30.533-148.898 47.425-1.697.727-2.465.994-2.993 2.224"/><path fill="#ec1d23" d="M-44.551 36.177c-.054-4.004-3.167-6.189-8.546-3.489l-.011 12.872s1.739-.77 3.015-1.364c3.145-1.459 5.616-4.083 5.542-8.019m-8.652-11.635a30.83 30.83 0 0 0 2.466-1.081c2.914-1.419 4.988-4.051 5.012-7.459.03-3.881-3.166-4.884-7.472-2.658l-.006 11.198zm22.771 9.796c.175 10.159-7.143 15.564-16.676 19.514l-19.528 8.296-.045-52.905s12.303-5.016 16.317-6.476c11.41-4.152 18.119.853 18.119 8.475 0 5.086-2.177 9.409-6.902 13.208 4.653.776 8.626 4.598 8.715 9.888zM6.638-10.316c0-4.456-3.065-5.641-6.772-4.574-2.997.858-6.488 2.221-6.488 2.221l-.024 32.891c-.036 3.276-.543 7.377-4.579 8.393-3.098.781-4.563-1.286-4.566-4.556l-.044-26.921c0-4.479-3.116-5.82-6.811-4.594-4.154 1.387-6.65 2.386-6.65 2.386s.048 23.291-.009 32.605c-.053 10.918 7.475 16.369 18.949 12.98C-.234 37.522 6.525 31.858 6.653 17.317l-.015-27.633M115.166 3.277c2.916-.629 4.735-2.691 4.735-6.254 0-3.21.012-5.651.012-5.651l-15.84 3.461.029-9.319s7.764-1.646 9.92-2.116c2.709-.594 4.128-2.071 4.128-5.167 0-2.888-.018-5.387-.018-5.387l-14.035 2.978-.003-7.389s7.296-1.523 11.228-2.349c3.063-.644 4.074-2.742 4.074-5.629 0-1.88.03-5.601.03-5.601-7.001 1.236-20.309 3.895-28.608 5.796l-.113 48.228s15.781-3.717 24.461-5.601M23.633 1.329c.011-.009 7.836-4.051 7.75-10.463-.077-5.483-5.127-4.283-7.747-3.322l-.003 13.785m.02 7.44s-.026 9.236-.039 12.963c-.032 3.494-2.418 6.017-5.438 7.171 0 .112 0-.105 0 0-2.525.866-7.891 2.713-7.891 2.713l.021-49.663s11.08-3.86 17.596-5.374c10.125-2.355 17.326 2.252 17.196 10.431-.063 7.787-4.407 12.512-8.309 15.747l8.575 8.233c2.635 2.553 2.819 7.168-.145 9.957-1.757 1.651-6.457 3.362-10.137-.383L23.653 8.769zM135.763-25.382c.016 0 7.73-2.938 7.642-9.123-.08-5.231-5.231-4.284-7.662-3.741l.02 12.864M122.818 1.831l.021-47.62s13.904-2.458 17.495-2.92c9.968-1.28 16.656 4.252 16.519 12.111-.053 6.911-4.395 11.07-8.085 13.565 0 0 6.78 7.639 8.597 9.66 2.441 2.724 2.332 7.381-1.279 9.662-3.549 2.238-7.065 1.067-9.106-1.187l-11.193-13.127s.036 8.074.027 11.599c-.033 3.509-2.063 6.067-5.703 6.82l-7.293 1.437z"/><path fill="#ec1d23" d="M87.587-18.156l-19.724 4.479s-.024 2.084-.027 5.486c.027 2.551 1.816 4.207 4.39 3.677 1.623-.337 2.922-.638 2.922-.638l.03 5.478c.021 2.167-3.231 3.586-6.608 3.508-4.732-.123-7.356-3.8-7.424-10.797.147-9.2 4.475-14.601 10.37-16.109 2.944-.758 5.623-.389 7.704-.119 5.082.821 8.008-1.629 8.112-5.829.106-4.498-3.884-7.28-12.448-6.983-18.57.641-28.065 13.983-28.065 29.906 0 16.307 10.653 23.51 23.656 21.16 7.348-1.482 11.003-3.868 13.536-6.089 2.532-2.221 3.576-5.543 3.576-8.38v-18.75"/><path fill="#FFF" d="M9.878-71.492C-11.874-61.89-26.56-39.034-27.367-29.359c-.318 3.846 4.781 4.398 5.261.314 4.59-17.648 18.638-34.287 31.984-42.447M81.958-55.093c11.732-2.878 18.175-3.312 18.291-8.553.204-8.776-24.834-18.952-47.76-17.109 23.359 1.561 37.371 10.554 37.448 16.821.044 3.964-3.391 7.462-7.979 8.841M89.228 138.883c17.604-6.924 34.521-20.15 43.88-39.961 2.701-5.725-5.109-8.65-7.314-1.927-5.478 14.085-16.736 30.623-36.566 41.888"/><path fill="#ec1d23" d="M177.883 79.364h2.403c1.306 0 2.955.238 2.955 1.783 0 1.751-1.204 1.988-2.813 1.988h-2.546v-3.771m-2.848 12.148h2.849V85.37h1.786l3.501 6.142h2.988l-3.846-6.278c2.128-.178 3.774-1.204 3.774-3.845 0-3.126-2.026-4.263-5.626-4.263h-5.427v14.386h.001zm-8.065-7.175c0 7.824 6.211 12.873 13.178 12.873 6.971 0 13.184-5.049 13.184-12.873 0-7.792-6.213-12.806-13.184-12.806-6.968.001-13.178 5.014-13.178 12.806zm3.5 0c0-5.837 4.285-10.059 9.677-10.059 5.326 0 9.682 4.222 9.682 10.059 0 5.873-4.355 10.127-9.682 10.127-5.391 0-9.677-4.254-9.677-10.127z"/></symbol><symbol viewBox="0 0 501.05 495.049" id="dell"><g fill-rule="evenodd" clip-rule="evenodd" fill="#0083CA"><path d="M241.281 15.478h14.379C325.601 19.422 375.468 45.98 412.44 83.2s64.301 86.31 67.953 156.548v13.915c-3.551 71.361-31.363 118.459-67.953 156.78-38.436 36.401-85.688 63.979-157.012 67.489h-14.147c-69.932-3.953-119.809-30.499-156.78-67.721C47.53 372.99 20.2 323.901 16.548 253.663v-13.915c.181-.051.27-.194.232-.464 3.497-69.97 30.976-119.57 67.722-156.316 36.915-36.917 87.299-63.665 156.779-67.49zm-45.457 33.165c-13.78 3.69-26.138 8.376-37.339 13.915-34.094 16.859-62.21 40.979-81.869 71.896-19.189 30.178-35.802 68.999-33.397 119.904 1.517 32.093 8.84 59.089 20.409 82.101 22.844 45.437 57.625 78.916 105.757 99.264 23.802 10.061 53.295 17.12 86.507 15.538 31.858-1.517 59.462-8.678 82.333-20.177 44.824-22.538 80.15-57.312 99.728-105.293 9.902-24.271 17.389-52.309 15.77-86.276-3.064-64.343-29.237-107.971-63.778-141.241-17.091-16.462-37.671-30.465-61.923-40.586-23.531-9.82-54.164-17.101-86.972-15.539-16.127.768-31.342 2.776-45.226 6.494z"/><path d="M227.134 186.637c7.348 4.866 14.865 9.565 21.801 14.843-15.671 9.84-31.034 19.989-46.616 29.918 2.366 1.809 5.056 3.293 7.421 5.102 15.712-9.954 31.429-19.902 47.081-29.918 7.019 4.345 13.931 8.798 20.41 13.684-15.683 9.906-30.842 20.336-46.385 30.382 2.303 1.872 5.126 3.223 7.653 4.87 16.065-9.832 31.73-20.066 47.544-30.149v-32.934h34.789v65.635c9.817.541 20.641.077 30.846.231v30.846h-65.635v-31.31c-19.285 11.716-39.046 24.965-58.445 37.34-20.201-13.118-39.67-26.97-59.836-40.122-5.841 18.516-19.716 32.447-42.674 34.092-14.319 1.025-30.588-.764-47.081 0v-96.712c20.619 1.366 43.258-2.757 59.604 2.319 14.453 4.489 24.7 16.021 29.454 30.382 20.182-12.675 40.039-25.672 60.069-38.499zm-115.962 36.876v34.788c8.287.041 14.589.522 19.481-3.246 7.277-5.606 8.743-19.5 2.319-26.904-4.287-4.94-11.525-5.977-21.569-5.334-.269.039-.251.367-.231.696zM360.722 192.435h34.788v65.866h30.614v30.846h-65.635v-96.016c-.019-.329-.038-.657.233-.696z"/></g></symbol><symbol viewBox="0 0 577 535" id="shell"><g transform="translate(-66.53 -189.148)" fill-rule="evenodd"><path d="M355.025 715.371c-19.99 0-30.263-13.036-30.263-13.036-16.429-.714-144.822-.357-144.822-.357l-12.5-105.509s-79.08-55.74-85.508-62.17c-37.96-172.205 99.246-336.374 273.099-336.374S666.089 362.094 628.13 534.3c-6.429 6.428-85.51 62.17-85.51 62.17l-12.5 105.508s-128.392-.357-144.82.357c0 0-10.275 13.036-30.275 13.036z" fill="#ed1c24"/><path d="M355.211 554.911L343.08 250.35c-14.631-2.986-51.955.597-71.96 15.526l58.225 290.23L249.92 277.82c-19.04-.233-57.461 31.96-60.315 41.504l115.852 246.934-130.185-225.734c-12.84 4.777-40.907 56.433-36.428 62.435L283.96 580.59 134.664 428.906s-19.408 29.56-6.752 79.63l84.33 60.9 10.557 83.2h103.39s16.915 16.033 28.917 16.033c12.001 0 28.916-16.034 28.916-16.034h103.39l10.558-83.2 84.329-60.898c12.656-50.07-6.752-79.63-6.752-79.63L426.252 580.59l145.115-177.63c4.479-6.003-23.589-57.659-36.428-62.436L404.754 566.258l115.853-246.934c-2.854-9.544-41.275-41.737-60.316-41.504l-79.425 278.286 58.226-290.23c-20.006-14.93-57.33-18.512-71.96-15.526l-11.92 304.561z" fill="#ffd500"/></g></symbol><symbol viewBox="274.62 554.459 200 200.395" overflow="visible" id="starbucks"><path fill="#010101" d="M439.469 737.486c3.126 0 5.808 2.431 5.808 5.73 0 3.33-2.679 5.759-5.808 5.759-3.16 0-5.839-2.429-5.839-5.759 0-3.298 2.68-5.73 5.839-5.73zm0 .929c-2.665 0-4.724 2.061-4.724 4.802 0 2.802 2.061 4.831 4.724 4.831 2.633 0 4.692-2.026 4.692-4.831-.002-2.741-2.059-4.802-4.692-4.802zm-1.226 8.132h-1.021v-6.629h2.538c1.58 0 2.354.588 2.354 1.888 0 1.194-.744 1.704-1.735 1.827l1.89 2.913h-1.114l-1.766-2.881h-1.147l.001 2.882zm0-3.717h1.21c1.238 0 1.641-.357 1.641-1.086 0-.634-.31-.991-1.472-.991h-1.379v2.077z"/><path fill="#067655" d="M276.096 654.765c0-54.361 44.068-98.436 98.437-98.436 54.363 0 98.433 44.074 98.433 98.436 0 54.365-44.069 98.435-98.433 98.435-54.369-.001-98.437-44.072-98.437-98.435"/><path fill="#FFF" d="M278.998 654.765c0-52.759 42.771-95.529 95.533-95.529 52.761 0 95.533 42.771 95.533 95.529 0 52.76-42.772 95.533-95.533 95.533-52.763-.002-95.533-42.774-95.533-95.533"/><path fill="#067655" d="M282.11 654.765c0-51.041 41.377-92.417 92.422-92.417 51.042 0 92.42 41.376 92.42 92.417 0 51.043-41.379 92.419-92.42 92.419-51.046 0-92.422-41.376-92.422-92.419"/><path fill="#FFF" d="M400.638 573.463c-1.643 4.74-3.798 9.422-4.963 14.421-.117 1.244.621 2.522 2.042 2.882.982.541 2.381.643 3.118 0 3.162-4.438 4.663-9.961 6.646-14.942 2.52.882 4.482 2.143 6.924 3.063-2.604 5.52-4.204 12.021-7.806 16.56-2.6 2.281-6.719 1.72-9.838.959-3.561-1.277-7.441-3.557-8.52-7.559-.839-2.74 2.962-12.142 5.039-17.759l7.358 2.375m-43.644 11.103c.876-1.08 1.202-2.404 1.558-3.722-.039-2.04-.239-4.279-1.679-5.879-5.678-5.862-14.879.438-21.241 2.997 2.512 6.343 5.908 14.24 8.681 21.002l6.757-3.678-2.479-5.682c.901-.4 1.564-.963 2.524-1.08 2.229 1.527 3.679 2.98 6.24 5.04l7.201-1.589.299-.102c-2.438-2.317-5.964-4.971-7.861-7.307zm-6.751-1.621l-3.959 1.68c-.988-1.817-1.408-3.063-2.088-4.539 1.838-.681 4.996-3.44 6.479-.363.395 1 .42 2.629-.432 3.222zm35.833 1.1c-.239-2.079-1.8-3.28-3.361-4.439 1.282-1.002 2.08-2.399 2.521-3.842.08-2.04-.361-3.88-1.921-5.277-5.441-2.685-12.639-1.103-18.758-1.063l.038.461.957 21.116.063.846 9.298-.244c3.523-.117 7.403.601 9.841-2.158 1.16-1.521 1.765-3.36 1.322-5.4zm-13.724-10.44c1.361.198 3.725-.483 4.725.599.558.597.442 1.84.117 2.521-1.037 1.202-2.957 1.157-4.558.957.116-1.357-.385-2.679-.284-4.077zm4.362 12.843c-1.278.197-2.237.078-3.598.116-.201-1.442-.317-3.36-.201-4.562 1.839.241 4.604-.76 5.48 1.321.318 1.404-.319 2.843-1.681 3.125zm55.682 4.68c1.362 1.678 2.285 3.758 2.883 5.877-1.68.903-2.96 1.924-4.562 2.642-.396-2.479-1.758-5.001-4.197-6.24-1.16-.681-2.884-.801-4.201-.36-2.042.759-3.8 2.52-4.56 4.561-.682 1.96.078 3.878 1.201 5.397 1.559 1.762 3.642 2.685 5.995 2.763-1.058 1.74-1.635 2.839-2.637 4.201-3.923-.561-7.602-2.722-9.841-6.362-1.92-3.077-2.039-7.798-.357-11.038 1.759-3.563 5.241-5.843 8.996-6.363 4.524-.162 8.603 1.64 11.28 4.922m-108.846-4.441l-.68-.421-8.442 7.262 9.243 21.959.419.92 5.222-5.837c-.64-1.6-1.407-3.358-2.008-4.801l5.847-4.92c1.439.659 2.589 1.359 4.56 2.397l5.282-3.477.692-.456c-6.707-3.816-13.512-8.581-20.135-12.626zm1.323 14.038c-.961-2.28-1.883-4.321-2.882-6.841 2.298 1.223 4.317 2.641 6.48 3.963a33.074 33.074 0 0 1-3.598 2.878zm119.528 4.561c-1.839 1.84-4.278 3.402-6.243 5.163 3.122.678 6.641.558 9.843 1.078 1.441 2.084 2.199 4.082 3.6 6.601l-11.759-.837c-2.602 4.079-4.961 8.238-7.203 12.478-1.397-2.041-2.477-4.677-3.839-6.956 1.522-3.082 3.5-6.343 5.023-9.425-2.619 1.622-4.92 3.721-7.586 5.399l-4.156-5.58c5.601-4.8 11.64-9.081 17.521-13.438l.476-.171 4.323 5.688m-132.05-1.477c-1.063 2.199-2.462 3.698-3.439 5.799l13.68 8.999c-.721 2.039-2.279 4.042-3.601 6l-14.041-8.761c-1.259 1.659-2.162 3.36-3.422 5.481-1.84-1.22-3.141-2.021-4.619-3.078 3.482-5.805 6.782-11.243 10.621-17.265l4.821 2.825m-12.923 21.878c-2.482 1.925-4.241 4.725-3.72 7.924.282.479.56 1.197 1.201 1.317 1.999 0 2.678-2.157 3.597-3.479 1.082-2.4 3.165-5.002 6.003-5.279 2.439-.159 4.524.479 6.123 2.399 2.439 2.923 1.999 7.642.841 11.044-1.085 2.52-2.763 5.076-5.163 6.719l-4.322-2.641c2.361-1.637 4.843-4.321 5.162-7.32 0-1.08-.237-2.521-1.563-2.642-2.758.802-3.037 4.119-4.917 6.001-1.439 1.481-3.241 2.599-5.523 2.279-2.121-.122-3.922-1.439-5.161-3.12-2.361-3.599-1.2-8.883.239-11.64.883-1.563 1.925-3.12 3.364-4.324 1.198.683 2.6 1.725 3.839 2.762m156.734 3.126c2.077 3.358 2.883 7.796 1.8 11.88l-4.439-.24c.603-2.682 1.04-6.041-.84-8.281-.56-.68-1.56-1.084-2.281-.722-2.438 2.721.205 6.644-1.315 9.723-.723 1.402-1.802 3.082-3.362 3.717-2.523.962-5.644.482-7.563-1.439-3.757-3.92-5.52-10.002-3.116-15.122h4.679c-.8 2.005-1.356 4.842-.598 7.203.397 1 .878 2.28 2.042 2.64 3.839.139 1.237-5.359 2.157-7.922.36-1.921 1.398-3.919 3.357-4.801 3.597-1.761 7.8.238 9.479 3.364M332.31 701.536c.482 1.158 1.179 2.077 1.476 3.815-1.279.805-2.894 1.464-4.356 2.186-.356-2.642-2.679-5.203-5.278-5.884-2.159-.536-4.52.483-6.118 2.402-1.322 1.557-1.723 3.8-1.322 5.761 1.042 2.715 3.922 4.766 6.84 4.766l.84.026c-.797 1.923-1.318 2.888-2.157 4.33-4.844-.165-9.722-3.005-11.523-7.687-1.56-3.797-.879-8.719 1.561-11.881 2.96-3.757 7.682-4.799 12.243-3.838 3.072.843 5.954 3.162 7.794 6.004m93.245-2.518l.304.296-7.201 6.704 2.4 2.896c2.039-1.6 4.241-3.301 6.422-5.338 1.12.94 2.021 2.037 3.079 3.282-2.156 2.056-4.401 3.457-6.278 5.418.8 1.004 1.416 2.14 2.637 3.341l7.764-6.401 3.317 3.422c-4.399 4.177-9.198 8.481-13.76 11.819l-13.563-17.523c4.323-3.603 7.962-6.882 11.764-10.682 1.161.763 2 1.76 3.115 2.766m-76.322 14.759c-2.481-3.72-6.882-5.92-11.641-5.639-4.603.562-9.083 3.921-10.323 8.521-1.397 4.238.124 8.6 2.882 11.642 3.122 2.999 7.205 4.395 11.519 3.717 3.563-.8 6.824-3.102 8.52-6.724 1.521-3.559 1.483-8.396-.957-11.517zm-7.442 11.4c-1.398 1.12-3.23 1.824-5.068 1.145-1.157-.561-2.589-1.584-2.91-2.826-.881-3.199.581-6.197 2.818-8.398 1.361-1.122 3.321-1.76 5.038-.96 1.042.317 2.202 1.48 2.526 2.522 1.354 3.158-.204 6.278-2.404 8.517zm50.167-3.442c-3.366.485-6.58.886-9.786 1.407.324 1.578.181 2.635.423 3.837 3.002-.059 5.621-.592 8.423-.954l.818 5.132c-2.74.502-5.727.959-8.603 1.242.08 2.319.389 5.157.352 7.719-2.359.361-4.906.619-7.348.46l-1.439-21.88-.019-.459a252.35 252.35 0 0 0 16.096-2.062c.223 1.641.724 3.535 1.083 5.558m18.353-9.835l.204.375-8.789 4.407 1.489 3.455c2.68-1.023 4.994-1.976 7.658-3.323.813 1.221 1.37 2.526 2.039 4.014-2.416 1.288-4.917 2.286-7.551 3.444.49 1.183.734 2.046 1.595 3.944l9.249-3.968 2.227 4.221c-5.396 2.773-11.211 5.554-16.527 7.479l-8.101-20.62c5.159-2.243 9.575-4.373 14.288-6.95.903 1.054 1.429 2.25 2.219 3.522M371.5 724.223c-3.347-.562-6.54-1.159-9.746-1.64-.179 1.603-.632 2.57-.766 3.785 2.876.856 5.534 1.146 8.312 1.654l-.782 5.145c-2.763-.357-5.746-.832-8.577-1.439-.627 2.231-1.192 5.033-2.005 7.463-2.361-.376-4.868-.906-7.144-1.804l5.281-21.277.124-.44a255.798 255.798 0 0 0 15.961 2.93c-.289 1.629-.39 3.591-.658 5.623M303.868 669.973c2.422-.012 4.75.08 7.251.022l-5.569 4.656c.536 1.96 1 4.213 1.68 6.842l-5.521-3.84c-2.322 1.06-3.72 2.361-6.118 3.599l1.918-6.603c-1.823-1.491-3.86-2.906-5.583-4.425 2.512-.065 4.712.035 7.141-.015 1.122-2.097 1.621-4.503 2.642-6.602l2.159 6.366M449.272 670.006c2.419-.01 4.581.055 7.247.025l-5.563 4.657c.541 1.956 1 4.21 1.677 6.842l-5.518-3.845c-2.325 1.058-3.721 2.361-6.122 3.601l1.92-6.599c-1.819-1.489-3.861-2.911-5.575-4.431 2.506-.064 4.706.037 7.134-.013.979-2.185 1.681-4.284 2.645-6.602l2.155 6.365"/><path fill="#FFF" d="M317.402 654.375c0-31.435 25.482-56.917 56.914-56.917s56.912 25.482 56.912 56.917c0 31.431-25.48 56.909-56.912 56.909s-56.914-25.478-56.914-56.909"/><path fill="#010101" d="M374.073 620.046c1.883 1.085 3.88 2.482 5.4 3.962l-.597.6c-3-.319-6.16.079-9.004.123-.317-.32-.956-.801-.361-1.203l4.562-3.482zm53.047 37.267c.04 1.354.167 2.517-.361 3.903-5.481 1.559-9.081-4.244-14.399-3.369l.601 3.008c4.92.162 7.993 4.88 13.076 4.677-.722 1.442.322 5.242-2.877 3.723-3.321-.798-5.722-3.723-9.361-3.723-.439.806-.161 1.922-.238 2.876 3.839.602 6.6 3.847 10.438 4.446-.361 1.319-.719 2.796-1.8 3.6-3.122-.76-5.561-3.564-8.885-3.484l-.592 2.762c3.159.081 5.2 2.876 8.039 3.715.078 1.165-.963 2.206-1.563 3.246-2.52-.757-4.442-2.922-7.322-2.762-.04-1.085.604-2.317.361-3.477-3.234.962-5.403-2.043-7.8-3.846-.069-5.899-6.279-9.769-6.607-15.295-.063-1.102.105-2.278.607-3.542 2.041-4.719 1.4-10.846-.838-15.246-.68-1.158-1.885-2.072-3.008-2.753 1.643 3.482 3.645 7.596 2.646 11.876-.116 3.305-2.066 6.479-2.088 9.665a6.64 6.64 0 0 0 .888 3.419c2.602 4.686 7.283 9.122 5.523 14.999-.484 1.805-1.925 3.201-2.285 5.038 3.044 2.521 5.922 5.362 9.961 5.522 1.439-.919.64-4.995 3.6-3.115l4.323 2.162c-.315 1.157-1.284 2.194-2.161 2.991-1.64-.798-3.24-1.755-5.285-1.677-.603.64-1.122 1.358-1.076 2.276 1.439.237 2.759.844 3.961 1.686-.558 1.202-1.646 1.955-2.646 2.876l-3.353-1.199c-.56.801-1.723 1.643-1.315 2.522.757.324 1.596.762 2.153 1.323-1.48 1.6-3.356 2.629-5.161 3.715-1.555-5.082-6.678-8.645-6.238-14.522l-.238-.238c-1.204 1.354-.802 3.519-.724 5.276 1.441 3.681 4.879 6.524 5.4 10.561-.602 1.039-1.959 1.246-3 1.686.121-7.278-10.919-12.798-3.839-20.16 2.361-3.605 6.317-7.045 4.915-12.008-1.439-4.792-6.529-7.761-6.484-13.133l.008-.419c1.159-5.602 4.681-11.563 1.8-17.522-.803-2.397-2.597-5.121-5.037-6.123 3.638 4.164 5.08 10.958 2.999 16.561-1.049 2.229-2.493 4.884-2.638 7.504h-.009c-.077 1.368.202 2.729 1.085 4.019 2.762 4.482 7.56 9.405 4.8 15.246-3.12 4.678-8.56 9.437-5.522 15.599 2.2 3.68 5.603 7.352 4.685 11.876l-3.6 1.199c2.4-8.438-9.362-13.396-4.438-21.837 3.04-4.52 8.477-8.761 5.399-14.76-1.84-3.717-5.642-5.917-5.522-10.562l.131-.78c1.239-6.588 6.247-12.824 2.745-19.864-.92-2.079-2.759-4.198-4.8-5.399l-.123.123c4.082 3.96 5.324 10.476 3.123 15.714-1.027 3.073-3.281 6.134-3.739 9.427-.218 1.553-.034 3.162.863 4.857 2.6 4.117 7.159 8.484 4.314 13.807-2.996 4.396-7.998 8.674-6 14.391 2.201 5.002 6.796 9.767 4.315 15.969l-3.715.839c2.959-6.044-1.478-12.042-4.077-17.284-3.162-7.521 6.793-11.122 6.953-17.998-.038-4.438-4.756-6.958-5.753-11.038-2.042-1.723-4.159.685-6.6.238-1.802.362-4.57-2.481-5.646.601-1.281 4.518-7.118 7.839-4.553 13.198 2.441 4.762 8.315 8.244 6.353 14.407-1.757 5.756-7.561 11.237-3.961 17.876-1.479-.479-4.24.438-4.2-1.924-2.279-8.04 7.44-12.724 4.438-20.76-1.397-4.922-7.762-7.641-6.361-13.561 1.036-4.873 6.504-8.28 5.737-13.618a7.871 7.871 0 0 0-.329-1.381c-2.041-5.76-6.205-11.522-3.723-18.245.681-1.92 2.042-3.56 3.238-5.276-3.96 2.119-5.958 6.601-5.876 11.16-.173 4.958 3.49 9.205 4.011 13.742.205 1.831-.095 3.706-1.373 5.695-2.598 3.525-5.996 7.242-4.438 11.884 1.481 4.682 7.321 7.519 6.961 12.961-.04 6.438-7.52 10.446-5.4 17.646l-3.723-1.208c-1.478-6.398 5.321-9.671 5.399-15.591.962-6.807-7.72-9.333-7.199-15.969-.037-5.042 4.401-8.235 6.361-12.476a8.125 8.125 0 0 0 .403-2.942c-.24-4.689-4.465-8.355-3.764-13.627.236-3.88 1.556-7.281 4.077-10.199-3.478 1.397-4.915 5.401-5.876 8.762-1.667 5.389 2.313 10.236 2.712 15.064.177 2.132-.344 4.252-2.35 6.419-2.882 3.396-5.804 7.681-3.724 12.245 2.203 5.036 9.125 8.956 6.123 15.237-1.638 3.961-5.56 6.959-5.399 11.638-1.039-.44-2.117-.879-3-1.677 0-5.959 8.477-9.681 4.438-15.961-.358 1.239-.435 2.923-.715 4.323-1.402 3.642-4.401 6.557-5.523 10.322-1.877-.724-3.839-2.246-5.4-3.846l2.162-1.323c-.24-.802-.879-1.481-1.438-2.161-1.404-.197-2.326.724-3.484 1.085-1-.882-1.965-1.682-2.762-2.762.718-2.044 6.326-.354 3.485-3.715-1.918-1.199-3.843.514-5.523 1.314l-2.277-2.876c1.96-1.199 3.915-2.883 6.353-2.4.601 1.082.643 2.673 1.8 3.238 4.121-.08 7.041-3.197 10.2-5.638-2.202-3.276-3.994-7.799-2.038-11.761 1.567-3.97 5.65-7.314 5.835-11.703.042-.999-.114-2.05-.551-3.181-2.159-5.561-2.921-13.077 1.2-17.999-2.241.602-3.562 3.395-4.323 5.515-2.477 5.43.656 10.461.764 15.665.015.936-.061 1.874-.288 2.819-2.121 4.28-5.557 8.035-6.115 12.96-2.441 1.557-4.445 4.28-7.923 3.361-.122.919.158 2.32.477 3.361-2.758-.116-4.639 1.917-6.961 2.877-1.237-.397-1.559-1.996-2.038-3.115 2.718-.918 4.679-3.643 7.8-3.6.362-1.005-.203-1.926-.362-2.885-3.882-1.723-10.036 8.518-10.553-.361 3.879-.24 6.358-3.841 10.2-4.2l.115-2.876c-4.36-.44-7.165 4.042-11.523 3.6l-.961-3.838c5.041.315 8.045-4.203 12.846-4.446.638-.839.715-2.079.838-3.238-5.241-.683-8.837 5.125-14.399 3.361 0 0-.192-2.417-.296-3.78h.008c-.038-.533-.074-.904-.074-.904 4.96 1.924 9.318-1.638 13.561-3.477 1.079-.323 2.762.237 3.246-.962-.042-.92 1.636-1.996.239-2.638-6.203-.842-10.324 6.64-16.685 3.238l-.477-.962c1.322-18.079 11.518-35.557 28.437-44.158 6.852-3.916 15.365-5.912 23.95-5.983 10.361-.086 20.83 2.632 28.618 8.145 7.563 4.639 14.797 12.284 18.723 20.045 3.755 6.8 5.483 14.43 5.999 22.553-6.562 4.958-10.964-4.671-17.646-2.516.36 1.042.559 2.12 1.323 3 5.922-.042 10 6.159 16.199 3.715l.006.904zm-75.374-22.265c-4.161-2.721-9.436-.159-13.314 1.323-.36-3.642-1.839-6.96-4.923-9.36-.299-.149-.713-.462-1.085-.485-.223-.014-.435.076-.6.361 1.398 8.599-4.192 14.599-8.153 21.122 1.319 1.078 3.438.917 5.038.6 4.199-1.679 8.199-4.602 13.199-3.6 1.479-2.52 3.963-4.961 6-6.961 1.245-1.077 2.955-1.761 3.838-3zm12.723 5.4c-.08.518.04 1.441.838 1.084 1.242-1.72 3.441-.359 4.8-.238v-.484c-.746-1.171-2.28-1.759-3.838-1.701-.36.013-.725.065-1.077.147-.521.116-.884.593-.723 1.192zm19.56-5.153c-1.117-2.481-3.677-3.485-6-4.085a31.224 31.224 0 0 0-3.493-.246c-.22-.002-.439-.005-.658 0-3.279.066-6.412.908-8.326 3.607-.275.762-1.483 1.832-.361 2.515 2.52-.161 5.396-.477 7.076 1.686 0 1.922 1.241 4.479-.838 5.399-1.723-1.595-3.763.679-5.638-.601-.881-.521-1.439.087-1.8.847-.521 4.959 2.076 10.432 6.715 13.191 1.88.678 4.408 1.323 6.37.361 4.72-2.198 6.675-7.235 7.554-11.876-.118-.883-.076-2.604-1.315-2.646-1.399.885-3.44.362-4.923 0-.877.283-.917 1.566-1.915 1.809l-.608-.485c-.521-2.197-.842-5.318 1.2-6.838 2.282-.92 4.962-1.322 7.322-.6.441-.76-.239-1.358-.362-2.038zm-2.408 3.944c-.159.004-.313.012-.469.017-.838.559-3.281.157-2.399 2.038 1.521-1.203 3.641-.36 5.161.238.562-.279.44-.839.477-1.322-.488-.908-1.654-.993-2.77-.971zm17.416-16.913c-2.961-.157-5.44 1.524-8.161 2.284-.237-2.315 1.522-4.76 1.923-7.084-4.399.283-7.883 2.931-11.522 5.046-.842-2.035-1.687-4.08-2.523-6.123l4.8-4.561.123-.601-6.484-.361c-1.117-1.957-1.557-4.314-2.877-6.114-1.08 2.04-1.806 4.199-2.885 6.237l-6.476.362v.477l4.915 4.438c-.601 2.281-1.159 4.76-2.638 6.484-2.88-1.725-5.719-3.602-8.876-4.8-.76-.245-1.843-.644-2.523-.123.999 2.201 2.397 4.568 2.162 6.97-1.321-.243-2.359-1.09-3.6-1.446-1.484-.405-3.245-1.196-4.685-.715 2.401 3.358 4.36 6.873 5.038 10.914 7.964-3.844 17.251-5.958 26.892-4.315 4.519.719 8.674 2.56 12.715 4.076.158-4.237 2.838-7.642 4.682-11.045zm13.676 23.044c4.077 1.079 8.167 5.521 12.484 2.639-3.76-6.239-9.356-12.001-7.8-20.16.163-.557-.197-1.121-.715-1.2-2.439.997-4.328 3.4-5.293 5.762-.397 1.397-.632 2.882-1.191 4.199-2.922-1.521-6.04-2.994-9.6-2.638-1.284.16-3.124.244-3.361 1.562 4.04 2.159 7.362 5.762 9.838 9.599 1.724-.281 3.838-.041 5.638.237zm-42.721 5.639l.115.723c1.563 1.041 2.044 2.806 4.208 2.646 1.919.114 3.359-1.684 4.315-3.123-2.597-.359-5.757.196-8.638-.246zm2.161-3.238c.078.32-.198.8.238.962 1.28-.278 3.599.681 4.314-.839-.499-.559-1.314-.813-2.169-.813s-1.742.249-2.383.69z"/></symbol></svg>